<mxfile host="app.diagrams.net" agent="Mozilla/5.0 (Windows NT 10.0; Win64; x64; rv:137.0) Gecko/20100101 Firefox/137.0" version="26.2.14" pages="2">
  <diagram name="usecase diagrams" id="e7e014a7-5840-1c2e-5031-d8a46d1fe8dd">
    <mxGraphModel grid="1" page="1" gridSize="10" guides="1" tooltips="1" connect="1" arrows="1" fold="1" pageScale="1" pageWidth="1169" pageHeight="826" background="none" math="0" shadow="0">
      <root>
        <mxCell id="0" />
        <mxCell id="1" parent="0" />
        <mxCell id="zLAh7wrK_-R1qrHKDbDB-103" style="edgeStyle=orthogonalEdgeStyle;rounded=0;orthogonalLoop=1;jettySize=auto;html=1;exitX=0.75;exitY=0.1;exitDx=0;exitDy=0;exitPerimeter=0;" edge="1" parent="1" source="zLAh7wrK_-R1qrHKDbDB-61" target="zLAh7wrK_-R1qrHKDbDB-85">
          <mxGeometry relative="1" as="geometry" />
        </mxCell>
        <mxCell id="zLAh7wrK_-R1qrHKDbDB-61" value="&lt;div&gt;Власник&lt;/div&gt;" style="shape=umlActor;verticalLabelPosition=bottom;verticalAlign=top;html=1;outlineConnect=0;" vertex="1" parent="1">
          <mxGeometry x="-300" y="70" width="30" height="60" as="geometry" />
        </mxCell>
        <object placeholders="1" c4Name="Система управління фермою" c4Type="SystemScopeBoundary" c4Application="Software System" label="&lt;font style=&quot;font-size: 16px&quot;&gt;&lt;b&gt;&lt;div style=&quot;text-align: left&quot;&gt;%c4Name%&lt;/div&gt;&lt;/b&gt;&lt;/font&gt;&lt;div style=&quot;text-align: left&quot;&gt;[%c4Application%]&lt;/div&gt;" id="zLAh7wrK_-R1qrHKDbDB-63">
          <mxCell style="rounded=1;fontSize=11;whiteSpace=wrap;html=1;dashed=1;arcSize=20;fillColor=none;strokeColor=#666666;fontColor=#333333;labelBackgroundColor=none;align=left;verticalAlign=bottom;labelBorderColor=none;spacingTop=0;spacing=10;dashPattern=8 4;metaEdit=1;rotatable=0;perimeter=rectanglePerimeter;noLabel=0;labelPadding=0;allowArrows=0;connectable=0;expand=0;recursiveResize=0;editable=1;pointerEvents=0;absoluteArcSize=1;points=[[0.25,0,0],[0.5,0,0],[0.75,0,0],[1,0.25,0],[1,0.5,0],[1,0.75,0],[0.75,1,0],[0.5,1,0],[0.25,1,0],[0,0.75,0],[0,0.5,0],[0,0.25,0]];" vertex="1" parent="1">
            <mxGeometry x="-80" y="40" width="1000" height="720" as="geometry" />
          </mxCell>
        </object>
        <mxCell id="MurQ-FWvQ-4kBOmV4Xmt-1" style="edgeStyle=orthogonalEdgeStyle;rounded=0;orthogonalLoop=1;jettySize=auto;html=1;exitX=0.5;exitY=1;exitDx=0;exitDy=0;entryX=0.5;entryY=0;entryDx=0;entryDy=0;" edge="1" parent="1" source="zLAh7wrK_-R1qrHKDbDB-64" target="zLAh7wrK_-R1qrHKDbDB-112">
          <mxGeometry relative="1" as="geometry" />
        </mxCell>
        <mxCell id="zLAh7wrK_-R1qrHKDbDB-64" value="&lt;div&gt;Авторизація&lt;/div&gt;" style="ellipse;whiteSpace=wrap;html=1;" vertex="1" parent="1">
          <mxGeometry x="690" y="1056.5" width="90" height="40" as="geometry" />
        </mxCell>
        <mxCell id="zLAh7wrK_-R1qrHKDbDB-67" value="&lt;div&gt;Технічний персонал&lt;/div&gt;" style="shape=umlActor;verticalLabelPosition=bottom;verticalAlign=top;html=1;outlineConnect=0;" vertex="1" parent="1">
          <mxGeometry x="260" y="1280" width="30" height="60" as="geometry" />
        </mxCell>
        <mxCell id="zLAh7wrK_-R1qrHKDbDB-68" value="&lt;div&gt;Працівник&lt;/div&gt;" style="shape=umlActor;verticalLabelPosition=bottom;verticalAlign=top;html=1;outlineConnect=0;" vertex="1" parent="1">
          <mxGeometry x="260" y="1040" width="30" height="60" as="geometry" />
        </mxCell>
        <mxCell id="zLAh7wrK_-R1qrHKDbDB-69" value="&lt;div&gt;Адміністратор&lt;/div&gt;" style="shape=umlActor;verticalLabelPosition=bottom;verticalAlign=top;html=1;outlineConnect=0;" vertex="1" parent="1">
          <mxGeometry x="-300" y="190" width="30" height="60" as="geometry" />
        </mxCell>
        <mxCell id="zLAh7wrK_-R1qrHKDbDB-70" value="&lt;div&gt;Ветеринар&lt;/div&gt;" style="shape=umlActor;verticalLabelPosition=bottom;verticalAlign=top;html=1;outlineConnect=0;" vertex="1" parent="1">
          <mxGeometry x="260" y="1160" width="30" height="60" as="geometry" />
        </mxCell>
        <mxCell id="MurQ-FWvQ-4kBOmV4Xmt-4" style="edgeStyle=orthogonalEdgeStyle;rounded=0;orthogonalLoop=1;jettySize=auto;html=1;exitX=1;exitY=0.3333333333333333;exitDx=0;exitDy=0;exitPerimeter=0;entryX=0;entryY=0.5;entryDx=0;entryDy=0;" edge="1" parent="1" source="zLAh7wrK_-R1qrHKDbDB-78" target="MurQ-FWvQ-4kBOmV4Xmt-2">
          <mxGeometry relative="1" as="geometry">
            <mxPoint x="50" y="200" as="targetPoint" />
          </mxGeometry>
        </mxCell>
        <mxCell id="zLAh7wrK_-R1qrHKDbDB-78" value="&lt;div&gt;Керуючий персонал&lt;/div&gt;" style="shape=umlActor;verticalLabelPosition=bottom;verticalAlign=top;html=1;outlineConnect=0;" vertex="1" parent="1">
          <mxGeometry x="-180" y="150" width="30" height="60" as="geometry" />
        </mxCell>
        <mxCell id="zLAh7wrK_-R1qrHKDbDB-83" value="Extends" style="endArrow=block;endSize=16;endFill=0;html=1;rounded=0;exitX=1;exitY=0.3333333333333333;exitDx=0;exitDy=0;exitPerimeter=0;entryX=0.25;entryY=0.1;entryDx=0;entryDy=0;entryPerimeter=0;" edge="1" parent="1" source="zLAh7wrK_-R1qrHKDbDB-61" target="zLAh7wrK_-R1qrHKDbDB-78">
          <mxGeometry width="160" relative="1" as="geometry">
            <mxPoint x="230" y="400" as="sourcePoint" />
            <mxPoint x="390" y="400" as="targetPoint" />
          </mxGeometry>
        </mxCell>
        <mxCell id="zLAh7wrK_-R1qrHKDbDB-84" value="Extends" style="endArrow=block;endSize=16;endFill=0;html=1;rounded=0;exitX=0.5;exitY=0.5;exitDx=0;exitDy=0;exitPerimeter=0;" edge="1" parent="1" source="zLAh7wrK_-R1qrHKDbDB-69" target="zLAh7wrK_-R1qrHKDbDB-78">
          <mxGeometry width="160" relative="1" as="geometry">
            <mxPoint x="230" y="400" as="sourcePoint" />
            <mxPoint x="390" y="400" as="targetPoint" />
          </mxGeometry>
        </mxCell>
        <mxCell id="zLAh7wrK_-R1qrHKDbDB-85" value="Згенерувати звітність" style="ellipse;whiteSpace=wrap;html=1;" vertex="1" parent="1">
          <mxGeometry x="270" y="70" width="90" height="40" as="geometry" />
        </mxCell>
        <mxCell id="zLAh7wrK_-R1qrHKDbDB-86" value="&lt;div&gt;Переглянути всі завдання&lt;/div&gt;" style="ellipse;whiteSpace=wrap;html=1;" vertex="1" parent="1">
          <mxGeometry x="390" y="200" width="90" height="40" as="geometry" />
        </mxCell>
        <mxCell id="zLAh7wrK_-R1qrHKDbDB-87" value="&lt;div&gt;Створити завдання&lt;/div&gt;" style="ellipse;whiteSpace=wrap;html=1;" vertex="1" parent="1">
          <mxGeometry x="570" y="160" width="90" height="40" as="geometry" />
        </mxCell>
        <mxCell id="zLAh7wrK_-R1qrHKDbDB-88" value="&lt;div&gt;Помилка валідації&lt;/div&gt;" style="ellipse;whiteSpace=wrap;html=1;" vertex="1" parent="1">
          <mxGeometry x="780" y="320" width="90" height="40" as="geometry" />
        </mxCell>
        <mxCell id="zLAh7wrK_-R1qrHKDbDB-89" value="&lt;div&gt;Керування завданнями&lt;/div&gt;" style="ellipse;whiteSpace=wrap;html=1;" vertex="1" parent="1">
          <mxGeometry x="230" y="200" width="90" height="40" as="geometry" />
        </mxCell>
        <mxCell id="zLAh7wrK_-R1qrHKDbDB-92" value="&lt;div&gt;Редагувати завдання&lt;/div&gt;" style="ellipse;whiteSpace=wrap;html=1;" vertex="1" parent="1">
          <mxGeometry x="550" y="240" width="90" height="40" as="geometry" />
        </mxCell>
        <mxCell id="zLAh7wrK_-R1qrHKDbDB-96" value="Extends" style="endArrow=block;endSize=16;endFill=0;html=1;rounded=0;exitX=0.5;exitY=0;exitDx=0;exitDy=0;exitPerimeter=0;entryX=0;entryY=0.3333333333333333;entryDx=0;entryDy=0;entryPerimeter=0;" edge="1" parent="1" source="zLAh7wrK_-R1qrHKDbDB-70" target="zLAh7wrK_-R1qrHKDbDB-117">
          <mxGeometry width="160" relative="1" as="geometry">
            <mxPoint x="402" y="1250" as="sourcePoint" />
            <mxPoint x="500" y="1316" as="targetPoint" />
          </mxGeometry>
        </mxCell>
        <mxCell id="zLAh7wrK_-R1qrHKDbDB-97" value="Extends" style="endArrow=block;endSize=16;endFill=0;html=1;rounded=0;exitX=1;exitY=0.3333333333333333;exitDx=0;exitDy=0;exitPerimeter=0;entryX=0;entryY=1;entryDx=0;entryDy=0;entryPerimeter=0;" edge="1" parent="1" source="zLAh7wrK_-R1qrHKDbDB-67" target="zLAh7wrK_-R1qrHKDbDB-117">
          <mxGeometry width="160" relative="1" as="geometry">
            <mxPoint x="412" y="1390" as="sourcePoint" />
            <mxPoint x="510" y="1456" as="targetPoint" />
          </mxGeometry>
        </mxCell>
        <mxCell id="zLAh7wrK_-R1qrHKDbDB-98" value="Extends" style="endArrow=block;endSize=16;endFill=0;html=1;rounded=0;exitX=0.5;exitY=0.5;exitDx=0;exitDy=0;exitPerimeter=0;entryX=0.5;entryY=0;entryDx=0;entryDy=0;entryPerimeter=0;" edge="1" parent="1" source="zLAh7wrK_-R1qrHKDbDB-68" target="zLAh7wrK_-R1qrHKDbDB-117">
          <mxGeometry width="160" relative="1" as="geometry">
            <mxPoint x="420" y="1080" as="sourcePoint" />
            <mxPoint x="518" y="1146" as="targetPoint" />
          </mxGeometry>
        </mxCell>
        <mxCell id="zLAh7wrK_-R1qrHKDbDB-104" value="&amp;lt;&amp;lt;include&amp;gt;&amp;gt;" style="html=1;verticalAlign=bottom;labelBackgroundColor=none;endArrow=open;endFill=0;dashed=1;rounded=0;" edge="1" parent="1" source="zLAh7wrK_-R1qrHKDbDB-89" target="zLAh7wrK_-R1qrHKDbDB-86">
          <mxGeometry width="160" relative="1" as="geometry">
            <mxPoint x="490" y="400" as="sourcePoint" />
            <mxPoint x="650" y="400" as="targetPoint" />
          </mxGeometry>
        </mxCell>
        <mxCell id="zLAh7wrK_-R1qrHKDbDB-105" value="&amp;lt;&amp;lt;include&amp;gt;&amp;gt;" style="html=1;verticalAlign=bottom;labelBackgroundColor=none;endArrow=open;endFill=0;dashed=1;rounded=0;exitX=1;exitY=0.5;exitDx=0;exitDy=0;" edge="1" parent="1" source="zLAh7wrK_-R1qrHKDbDB-86" target="zLAh7wrK_-R1qrHKDbDB-87">
          <mxGeometry x="-0.34" y="5" width="160" relative="1" as="geometry">
            <mxPoint x="485" y="240" as="sourcePoint" />
            <mxPoint x="640" y="248" as="targetPoint" />
            <Array as="points" />
            <mxPoint as="offset" />
          </mxGeometry>
        </mxCell>
        <mxCell id="zLAh7wrK_-R1qrHKDbDB-106" value="&amp;lt;&amp;lt;include&amp;gt;&amp;gt;" style="html=1;verticalAlign=bottom;labelBackgroundColor=none;endArrow=open;endFill=0;dashed=1;rounded=0;exitX=0.5;exitY=1;exitDx=0;exitDy=0;entryX=0;entryY=0.5;entryDx=0;entryDy=0;" edge="1" parent="1" source="zLAh7wrK_-R1qrHKDbDB-86" target="zLAh7wrK_-R1qrHKDbDB-92">
          <mxGeometry x="0.1266" y="1" width="160" relative="1" as="geometry">
            <mxPoint x="490" y="230" as="sourcePoint" />
            <mxPoint x="588" y="201" as="targetPoint" />
            <Array as="points" />
            <mxPoint as="offset" />
          </mxGeometry>
        </mxCell>
        <mxCell id="zLAh7wrK_-R1qrHKDbDB-107" value="&amp;lt;&amp;lt;include&amp;gt;&amp;gt;" style="html=1;verticalAlign=bottom;labelBackgroundColor=none;endArrow=open;endFill=0;dashed=1;rounded=0;exitX=1;exitY=0;exitDx=0;exitDy=0;entryX=0.261;entryY=0.893;entryDx=0;entryDy=0;entryPerimeter=0;" edge="1" parent="1" source="zLAh7wrK_-R1qrHKDbDB-87" target="zLAh7wrK_-R1qrHKDbDB-108">
          <mxGeometry x="-0.0062" y="-5" width="160" relative="1" as="geometry">
            <mxPoint x="490" y="230" as="sourcePoint" />
            <mxPoint x="588" y="201" as="targetPoint" />
            <Array as="points" />
            <mxPoint as="offset" />
          </mxGeometry>
        </mxCell>
        <mxCell id="zLAh7wrK_-R1qrHKDbDB-108" value="&lt;div&gt;Валідація&lt;/div&gt;" style="ellipse;whiteSpace=wrap;html=1;" vertex="1" parent="1">
          <mxGeometry x="770" y="143" width="90" height="40" as="geometry" />
        </mxCell>
        <mxCell id="zLAh7wrK_-R1qrHKDbDB-111" value="&amp;lt;&amp;lt;extend&amp;gt;&amp;gt;" style="html=1;verticalAlign=bottom;labelBackgroundColor=none;endArrow=open;endFill=0;dashed=1;rounded=0;" edge="1" parent="1" source="zLAh7wrK_-R1qrHKDbDB-108" target="zLAh7wrK_-R1qrHKDbDB-88">
          <mxGeometry x="0.1266" y="1" width="160" relative="1" as="geometry">
            <mxPoint x="730" y="120" as="sourcePoint" />
            <mxPoint x="845" y="140" as="targetPoint" />
            <Array as="points" />
            <mxPoint as="offset" />
          </mxGeometry>
        </mxCell>
        <mxCell id="zLAh7wrK_-R1qrHKDbDB-112" value="Мої завдання" style="ellipse;whiteSpace=wrap;html=1;" vertex="1" parent="1">
          <mxGeometry x="760" y="1190" width="90" height="40" as="geometry" />
        </mxCell>
        <mxCell id="zLAh7wrK_-R1qrHKDbDB-117" value="Персонал" style="shape=umlActor;verticalLabelPosition=bottom;verticalAlign=top;html=1;outlineConnect=0;" vertex="1" parent="1">
          <mxGeometry x="480" y="1140" width="30" height="60" as="geometry" />
        </mxCell>
        <mxCell id="zLAh7wrK_-R1qrHKDbDB-126" value="Вибір завдання" style="ellipse;whiteSpace=wrap;html=1;" vertex="1" parent="1">
          <mxGeometry x="910" y="1253" width="90" height="40" as="geometry" />
        </mxCell>
        <mxCell id="zLAh7wrK_-R1qrHKDbDB-127" value="&amp;lt;&amp;lt;include&amp;gt;&amp;gt;" style="html=1;verticalAlign=bottom;labelBackgroundColor=none;endArrow=open;endFill=0;dashed=1;rounded=0;entryX=0;entryY=0.5;entryDx=0;entryDy=0;exitX=0.603;exitY=0.966;exitDx=0;exitDy=0;exitPerimeter=0;" edge="1" parent="1" source="zLAh7wrK_-R1qrHKDbDB-112" target="zLAh7wrK_-R1qrHKDbDB-126">
          <mxGeometry x="-0.0062" y="-5" width="160" relative="1" as="geometry">
            <mxPoint x="890" y="1260" as="sourcePoint" />
            <mxPoint x="1001" y="1152" as="targetPoint" />
            <Array as="points">
              <mxPoint x="850" y="1260" />
            </Array>
            <mxPoint as="offset" />
          </mxGeometry>
        </mxCell>
        <mxCell id="zLAh7wrK_-R1qrHKDbDB-130" value="Виконую завдання" style="ellipse;whiteSpace=wrap;html=1;" vertex="1" parent="1">
          <mxGeometry x="1150" y="1213" width="90" height="40" as="geometry" />
        </mxCell>
        <mxCell id="zLAh7wrK_-R1qrHKDbDB-131" value="&amp;lt;&amp;lt;include&amp;gt;&amp;gt;" style="html=1;verticalAlign=bottom;labelBackgroundColor=none;endArrow=open;endFill=0;dashed=1;rounded=0;entryX=0;entryY=0.5;entryDx=0;entryDy=0;exitX=1;exitY=0.5;exitDx=0;exitDy=0;" edge="1" parent="1" source="zLAh7wrK_-R1qrHKDbDB-126" target="zLAh7wrK_-R1qrHKDbDB-130">
          <mxGeometry x="-0.2" width="160" relative="1" as="geometry">
            <mxPoint x="824" y="1239" as="sourcePoint" />
            <mxPoint x="900" y="1280" as="targetPoint" />
            <Array as="points" />
            <mxPoint as="offset" />
          </mxGeometry>
        </mxCell>
        <mxCell id="zLAh7wrK_-R1qrHKDbDB-132" style="edgeStyle=orthogonalEdgeStyle;rounded=0;orthogonalLoop=1;jettySize=auto;html=1;exitX=0.75;exitY=0.1;exitDx=0;exitDy=0;exitPerimeter=0;" edge="1" parent="1" source="zLAh7wrK_-R1qrHKDbDB-133" target="zLAh7wrK_-R1qrHKDbDB-147">
          <mxGeometry relative="1" as="geometry" />
        </mxCell>
        <mxCell id="zLAh7wrK_-R1qrHKDbDB-133" value="&lt;div&gt;Власник&lt;/div&gt;" style="shape=umlActor;verticalLabelPosition=bottom;verticalAlign=top;html=1;outlineConnect=0;" vertex="1" parent="1">
          <mxGeometry x="-1760" y="193" width="30" height="60" as="geometry" />
        </mxCell>
        <object placeholders="1" c4Name="Система управління фермою" c4Type="SystemScopeBoundary" c4Application="Software System" label="&lt;font style=&quot;font-size: 16px&quot;&gt;&lt;b&gt;&lt;div style=&quot;text-align: left&quot;&gt;%c4Name%&lt;/div&gt;&lt;/b&gt;&lt;/font&gt;&lt;div style=&quot;text-align: left&quot;&gt;[%c4Application%]&lt;/div&gt;" id="zLAh7wrK_-R1qrHKDbDB-134">
          <mxCell style="rounded=1;fontSize=11;whiteSpace=wrap;html=1;dashed=1;arcSize=20;fillColor=none;strokeColor=#666666;fontColor=#333333;labelBackgroundColor=none;align=left;verticalAlign=bottom;labelBorderColor=none;spacingTop=0;spacing=10;dashPattern=8 4;metaEdit=1;rotatable=0;perimeter=rectanglePerimeter;noLabel=0;labelPadding=0;allowArrows=0;connectable=0;expand=0;recursiveResize=0;editable=1;pointerEvents=0;absoluteArcSize=1;points=[[0.25,0,0],[0.5,0,0],[0.75,0,0],[1,0.25,0],[1,0.5,0],[1,0.75,0],[0.75,1,0],[0.5,1,0],[0.25,1,0],[0,0.75,0],[0,0.5,0],[0,0.25,0]];" vertex="1" parent="1">
            <mxGeometry x="-1540" y="163" width="780" height="327" as="geometry" />
          </mxCell>
        </object>
        <mxCell id="zLAh7wrK_-R1qrHKDbDB-141" value="&lt;div&gt;Адміністратор&lt;/div&gt;" style="shape=umlActor;verticalLabelPosition=bottom;verticalAlign=top;html=1;outlineConnect=0;" vertex="1" parent="1">
          <mxGeometry x="-1760" y="313" width="30" height="60" as="geometry" />
        </mxCell>
        <mxCell id="zLAh7wrK_-R1qrHKDbDB-143" style="edgeStyle=orthogonalEdgeStyle;rounded=0;orthogonalLoop=1;jettySize=auto;html=1;exitX=0.5;exitY=0.5;exitDx=0;exitDy=0;exitPerimeter=0;" edge="1" parent="1" source="zLAh7wrK_-R1qrHKDbDB-144" target="zLAh7wrK_-R1qrHKDbDB-151">
          <mxGeometry relative="1" as="geometry" />
        </mxCell>
        <mxCell id="zLAh7wrK_-R1qrHKDbDB-144" value="&lt;div&gt;Керуючий персонал&lt;/div&gt;" style="shape=umlActor;verticalLabelPosition=bottom;verticalAlign=top;html=1;outlineConnect=0;" vertex="1" parent="1">
          <mxGeometry x="-1640" y="273" width="30" height="60" as="geometry" />
        </mxCell>
        <mxCell id="zLAh7wrK_-R1qrHKDbDB-145" value="Extends" style="endArrow=block;endSize=16;endFill=0;html=1;rounded=0;exitX=1;exitY=0.3333333333333333;exitDx=0;exitDy=0;exitPerimeter=0;entryX=0.25;entryY=0.1;entryDx=0;entryDy=0;entryPerimeter=0;" edge="1" parent="1" source="zLAh7wrK_-R1qrHKDbDB-133" target="zLAh7wrK_-R1qrHKDbDB-144">
          <mxGeometry width="160" relative="1" as="geometry">
            <mxPoint x="-1230" y="523" as="sourcePoint" />
            <mxPoint x="-1070" y="523" as="targetPoint" />
          </mxGeometry>
        </mxCell>
        <mxCell id="zLAh7wrK_-R1qrHKDbDB-146" value="Extends" style="endArrow=block;endSize=16;endFill=0;html=1;rounded=0;exitX=0.5;exitY=0.5;exitDx=0;exitDy=0;exitPerimeter=0;" edge="1" parent="1" source="zLAh7wrK_-R1qrHKDbDB-141" target="zLAh7wrK_-R1qrHKDbDB-144">
          <mxGeometry width="160" relative="1" as="geometry">
            <mxPoint x="-1230" y="523" as="sourcePoint" />
            <mxPoint x="-1070" y="523" as="targetPoint" />
          </mxGeometry>
        </mxCell>
        <mxCell id="zLAh7wrK_-R1qrHKDbDB-147" value="Згенерувати звітність" style="ellipse;whiteSpace=wrap;html=1;" vertex="1" parent="1">
          <mxGeometry x="-1450" y="193" width="90" height="40" as="geometry" />
        </mxCell>
        <mxCell id="zLAh7wrK_-R1qrHKDbDB-148" value="Список поточних запасів" style="ellipse;whiteSpace=wrap;html=1;" vertex="1" parent="1">
          <mxGeometry x="-1340" y="320" width="100" height="43" as="geometry" />
        </mxCell>
        <mxCell id="zLAh7wrK_-R1qrHKDbDB-149" value="&lt;div&gt;Оновлення даних&lt;/div&gt;" style="ellipse;whiteSpace=wrap;html=1;" vertex="1" parent="1">
          <mxGeometry x="-890" y="320" width="90" height="40" as="geometry" />
        </mxCell>
        <mxCell id="zLAh7wrK_-R1qrHKDbDB-151" value="&lt;div&gt;Контроль ресурсів&lt;/div&gt;" style="ellipse;whiteSpace=wrap;html=1;" vertex="1" parent="1">
          <mxGeometry x="-1490" y="323" width="90" height="40" as="geometry" />
        </mxCell>
        <mxCell id="zLAh7wrK_-R1qrHKDbDB-161" value="&amp;lt;&amp;lt;include&amp;gt;&amp;gt;" style="html=1;verticalAlign=bottom;labelBackgroundColor=none;endArrow=open;endFill=0;dashed=1;rounded=0;" edge="1" parent="1" source="zLAh7wrK_-R1qrHKDbDB-151" target="zLAh7wrK_-R1qrHKDbDB-147">
          <mxGeometry width="160" relative="1" as="geometry">
            <mxPoint x="-1510" y="282.40999999999997" as="sourcePoint" />
            <mxPoint x="-1350" y="282.40999999999997" as="targetPoint" />
          </mxGeometry>
        </mxCell>
        <mxCell id="zLAh7wrK_-R1qrHKDbDB-162" value="&amp;lt;&amp;lt;include&amp;gt;&amp;gt;" style="html=1;verticalAlign=bottom;labelBackgroundColor=none;endArrow=open;endFill=0;dashed=1;rounded=0;" edge="1" parent="1" source="zLAh7wrK_-R1qrHKDbDB-151" target="zLAh7wrK_-R1qrHKDbDB-148">
          <mxGeometry width="160" relative="1" as="geometry">
            <mxPoint x="-1230" y="523" as="sourcePoint" />
            <mxPoint x="-1070" y="523" as="targetPoint" />
          </mxGeometry>
        </mxCell>
        <mxCell id="zLAh7wrK_-R1qrHKDbDB-163" value="&amp;lt;&amp;lt;include&amp;gt;&amp;gt;" style="html=1;verticalAlign=bottom;labelBackgroundColor=none;endArrow=open;endFill=0;dashed=1;rounded=0;exitX=1;exitY=0.5;exitDx=0;exitDy=0;" edge="1" parent="1" source="zLAh7wrK_-R1qrHKDbDB-148" target="zLAh7wrK_-R1qrHKDbDB-149">
          <mxGeometry x="-0.34" y="5" width="160" relative="1" as="geometry">
            <mxPoint x="-1235" y="363" as="sourcePoint" />
            <mxPoint x="-1080" y="371" as="targetPoint" />
            <Array as="points" />
            <mxPoint as="offset" />
          </mxGeometry>
        </mxCell>
        <mxCell id="zLAh7wrK_-R1qrHKDbDB-183" value="&lt;b&gt;&lt;span style=&quot;font-size:16.0pt;line-height:106%;&lt;br/&gt;font-family:&amp;quot;Times New Roman&amp;quot;,serif;mso-fareast-font-family:Calibri;mso-fareast-theme-font:&lt;br/&gt;minor-latin;mso-ansi-language:UK;mso-fareast-language:EN-US;mso-bidi-language:&lt;br/&gt;AR-SA;mso-bidi-font-weight:bold&quot;&gt;Планування завдань&lt;/span&gt;&lt;/b&gt;" style="text;html=1;align=center;verticalAlign=middle;whiteSpace=wrap;rounded=0;" vertex="1" parent="1">
          <mxGeometry x="90" width="720" height="30" as="geometry" />
        </mxCell>
        <mxCell id="zLAh7wrK_-R1qrHKDbDB-185" value="&lt;b style=&quot;mso-bidi-font-weight:normal&quot;&gt;&lt;span style=&quot;font-size:16.0pt;line-height:106%;font-family:&amp;quot;Times New Roman&amp;quot;,serif;&lt;br/&gt;mso-fareast-font-family:Calibri;mso-fareast-theme-font:minor-latin;mso-bidi-theme-font:&lt;br/&gt;minor-bidi;mso-ansi-language:EN-US;mso-fareast-language:EN-US;mso-bidi-language:&lt;br/&gt;AR-SA&quot; lang=&quot;EN-US&quot;&gt;Контроль запасів кормів&lt;/span&gt;&lt;/b&gt;" style="text;html=1;align=center;verticalAlign=middle;whiteSpace=wrap;rounded=0;" vertex="1" parent="1">
          <mxGeometry x="-1510" y="110" width="720" height="30" as="geometry" />
        </mxCell>
        <mxCell id="zLAh7wrK_-R1qrHKDbDB-240" value="&lt;b&gt;&lt;font style=&quot;font-size: 16px;&quot;&gt;Моніторинг стану тварин&lt;/font&gt;&lt;/b&gt;" style="text;html=1;align=center;verticalAlign=middle;whiteSpace=wrap;rounded=0;" vertex="1" parent="1">
          <mxGeometry x="-970" y="923" width="720" height="30" as="geometry" />
        </mxCell>
        <mxCell id="zLAh7wrK_-R1qrHKDbDB-250" style="edgeStyle=orthogonalEdgeStyle;rounded=0;orthogonalLoop=1;jettySize=auto;html=1;exitX=0.75;exitY=0.1;exitDx=0;exitDy=0;exitPerimeter=0;" edge="1" parent="1" source="zLAh7wrK_-R1qrHKDbDB-251" target="zLAh7wrK_-R1qrHKDbDB-265">
          <mxGeometry relative="1" as="geometry" />
        </mxCell>
        <mxCell id="zLAh7wrK_-R1qrHKDbDB-251" value="&lt;div&gt;Власник&lt;/div&gt;" style="shape=umlActor;verticalLabelPosition=bottom;verticalAlign=top;html=1;outlineConnect=0;" vertex="1" parent="1">
          <mxGeometry x="-1330" y="1010" width="30" height="60" as="geometry" />
        </mxCell>
        <object placeholders="1" c4Name="Система управління фермою" c4Type="SystemScopeBoundary" c4Application="Software System" label="&lt;font style=&quot;font-size: 16px&quot;&gt;&lt;b&gt;&lt;div style=&quot;text-align: left&quot;&gt;%c4Name%&lt;/div&gt;&lt;/b&gt;&lt;/font&gt;&lt;div style=&quot;text-align: left&quot;&gt;[%c4Application%]&lt;/div&gt;" id="zLAh7wrK_-R1qrHKDbDB-252">
          <mxCell style="rounded=1;fontSize=11;whiteSpace=wrap;html=1;dashed=1;arcSize=20;fillColor=none;strokeColor=#666666;fontColor=#333333;labelBackgroundColor=none;align=left;verticalAlign=bottom;labelBorderColor=none;spacingTop=0;spacing=10;dashPattern=8 4;metaEdit=1;rotatable=0;perimeter=rectanglePerimeter;noLabel=0;labelPadding=0;allowArrows=0;connectable=0;expand=0;recursiveResize=0;editable=1;pointerEvents=0;absoluteArcSize=1;points=[[0.25,0,0],[0.5,0,0],[0.75,0,0],[1,0.25,0],[1,0.5,0],[1,0.75,0],[0.75,1,0],[0.5,1,0],[0.25,1,0],[0,0.75,0],[0,0.5,0],[0,0.25,0]];" vertex="1" parent="1">
            <mxGeometry x="-990" y="980" width="840" height="360" as="geometry" />
          </mxCell>
        </object>
        <mxCell id="zLAh7wrK_-R1qrHKDbDB-259" value="&lt;div&gt;Адміністратор&lt;/div&gt;" style="shape=umlActor;verticalLabelPosition=bottom;verticalAlign=top;html=1;outlineConnect=0;" vertex="1" parent="1">
          <mxGeometry x="-1330" y="1130" width="30" height="60" as="geometry" />
        </mxCell>
        <mxCell id="zLAh7wrK_-R1qrHKDbDB-260" value="&lt;div&gt;Ветеринар&lt;/div&gt;" style="shape=umlActor;verticalLabelPosition=bottom;verticalAlign=top;html=1;outlineConnect=0;" vertex="1" parent="1">
          <mxGeometry x="-1350" y="1260" width="30" height="60" as="geometry" />
        </mxCell>
        <mxCell id="zLAh7wrK_-R1qrHKDbDB-261" style="edgeStyle=orthogonalEdgeStyle;rounded=0;orthogonalLoop=1;jettySize=auto;html=1;exitX=0.5;exitY=0.5;exitDx=0;exitDy=0;exitPerimeter=0;" edge="1" parent="1" source="zLAh7wrK_-R1qrHKDbDB-262" target="zLAh7wrK_-R1qrHKDbDB-269">
          <mxGeometry relative="1" as="geometry" />
        </mxCell>
        <mxCell id="zLAh7wrK_-R1qrHKDbDB-262" value="&lt;div align=&quot;center&quot;&gt;Персонал із відповідним доступом&lt;/div&gt;" style="shape=umlActor;verticalLabelPosition=bottom;verticalAlign=top;html=1;outlineConnect=0;align=center;" vertex="1" parent="1">
          <mxGeometry x="-1139" y="1080" width="30" height="60" as="geometry" />
        </mxCell>
        <mxCell id="zLAh7wrK_-R1qrHKDbDB-263" value="Extends" style="endArrow=block;endSize=16;endFill=0;html=1;rounded=0;exitX=1;exitY=0.3333333333333333;exitDx=0;exitDy=0;exitPerimeter=0;entryX=0.25;entryY=0.1;entryDx=0;entryDy=0;entryPerimeter=0;" edge="1" parent="1" source="zLAh7wrK_-R1qrHKDbDB-251" target="zLAh7wrK_-R1qrHKDbDB-262">
          <mxGeometry width="160" relative="1" as="geometry">
            <mxPoint x="-680" y="1340" as="sourcePoint" />
            <mxPoint x="-520" y="1340" as="targetPoint" />
          </mxGeometry>
        </mxCell>
        <mxCell id="zLAh7wrK_-R1qrHKDbDB-264" value="Extends" style="endArrow=block;endSize=16;endFill=0;html=1;rounded=0;exitX=0.5;exitY=0.5;exitDx=0;exitDy=0;exitPerimeter=0;" edge="1" parent="1" source="zLAh7wrK_-R1qrHKDbDB-259" target="zLAh7wrK_-R1qrHKDbDB-262">
          <mxGeometry width="160" relative="1" as="geometry">
            <mxPoint x="-680" y="1340" as="sourcePoint" />
            <mxPoint x="-520" y="1340" as="targetPoint" />
          </mxGeometry>
        </mxCell>
        <mxCell id="zLAh7wrK_-R1qrHKDbDB-265" value="Згенерувати звітність" style="ellipse;whiteSpace=wrap;html=1;" vertex="1" parent="1">
          <mxGeometry x="-900" y="1010" width="90" height="40" as="geometry" />
        </mxCell>
        <mxCell id="zLAh7wrK_-R1qrHKDbDB-266" value="Обробка даних про тварин" style="ellipse;whiteSpace=wrap;html=1;" vertex="1" parent="1">
          <mxGeometry x="-830" y="1070" width="170" height="80" as="geometry" />
        </mxCell>
        <mxCell id="zLAh7wrK_-R1qrHKDbDB-267" value="Пошук тварини у системі" style="ellipse;whiteSpace=wrap;html=1;" vertex="1" parent="1">
          <mxGeometry x="-600" y="1040" width="110" height="60" as="geometry" />
        </mxCell>
        <mxCell id="zLAh7wrK_-R1qrHKDbDB-269" value="Облік тварин" style="ellipse;whiteSpace=wrap;html=1;" vertex="1" parent="1">
          <mxGeometry x="-940" y="1140" width="90" height="40" as="geometry" />
        </mxCell>
        <mxCell id="zLAh7wrK_-R1qrHKDbDB-270" value="Оновлення медичної картки" style="ellipse;whiteSpace=wrap;html=1;" vertex="1" parent="1">
          <mxGeometry x="-630" y="1160" width="110" height="60" as="geometry" />
        </mxCell>
        <mxCell id="zLAh7wrK_-R1qrHKDbDB-275" value="Extends" style="endArrow=block;endSize=16;endFill=0;html=1;rounded=0;exitX=1;exitY=0.3333333333333333;exitDx=0;exitDy=0;exitPerimeter=0;" edge="1" parent="1" source="zLAh7wrK_-R1qrHKDbDB-260" target="zLAh7wrK_-R1qrHKDbDB-262">
          <mxGeometry width="160" relative="1" as="geometry">
            <mxPoint x="-1158" y="1510" as="sourcePoint" />
            <mxPoint x="-1060" y="1576" as="targetPoint" />
          </mxGeometry>
        </mxCell>
        <mxCell id="zLAh7wrK_-R1qrHKDbDB-280" value="&amp;lt;&amp;lt;include&amp;gt;&amp;gt;" style="html=1;verticalAlign=bottom;labelBackgroundColor=none;endArrow=open;endFill=0;dashed=1;rounded=0;" edge="1" parent="1" source="zLAh7wrK_-R1qrHKDbDB-269" target="zLAh7wrK_-R1qrHKDbDB-266">
          <mxGeometry width="160" relative="1" as="geometry">
            <mxPoint x="-680" y="1340" as="sourcePoint" />
            <mxPoint x="-520" y="1340" as="targetPoint" />
          </mxGeometry>
        </mxCell>
        <mxCell id="zLAh7wrK_-R1qrHKDbDB-281" value="&amp;lt;&amp;lt;include&amp;gt;&amp;gt;" style="html=1;verticalAlign=bottom;labelBackgroundColor=none;endArrow=open;endFill=0;dashed=1;rounded=0;exitX=1;exitY=0.5;exitDx=0;exitDy=0;" edge="1" parent="1" source="zLAh7wrK_-R1qrHKDbDB-266" target="zLAh7wrK_-R1qrHKDbDB-267">
          <mxGeometry x="-0.34" y="5" width="160" relative="1" as="geometry">
            <mxPoint x="-685" y="1180" as="sourcePoint" />
            <mxPoint x="-530" y="1188" as="targetPoint" />
            <Array as="points" />
            <mxPoint as="offset" />
          </mxGeometry>
        </mxCell>
        <mxCell id="zLAh7wrK_-R1qrHKDbDB-282" value="&amp;lt;&amp;lt;include&amp;gt;&amp;gt;" style="html=1;verticalAlign=bottom;labelBackgroundColor=none;endArrow=open;endFill=0;dashed=1;rounded=0;exitX=0.5;exitY=1;exitDx=0;exitDy=0;entryX=0;entryY=0.5;entryDx=0;entryDy=0;" edge="1" parent="1" source="zLAh7wrK_-R1qrHKDbDB-266" target="zLAh7wrK_-R1qrHKDbDB-270">
          <mxGeometry x="0.1266" y="1" width="160" relative="1" as="geometry">
            <mxPoint x="-680" y="1170" as="sourcePoint" />
            <mxPoint x="-582" y="1141" as="targetPoint" />
            <Array as="points" />
            <mxPoint as="offset" />
          </mxGeometry>
        </mxCell>
        <mxCell id="zLAh7wrK_-R1qrHKDbDB-309" value="&amp;lt;&amp;lt;include&amp;gt;&amp;gt;" style="html=1;verticalAlign=bottom;labelBackgroundColor=none;endArrow=open;endFill=0;dashed=1;rounded=0;exitX=0.5;exitY=1;exitDx=0;exitDy=0;entryX=0.5;entryY=0;entryDx=0;entryDy=0;" edge="1" parent="1" source="zLAh7wrK_-R1qrHKDbDB-267" target="zLAh7wrK_-R1qrHKDbDB-270">
          <mxGeometry x="-0.2308" y="4" width="160" relative="1" as="geometry">
            <mxPoint x="-650" y="1120" as="sourcePoint" />
            <mxPoint x="-589" y="1126" as="targetPoint" />
            <Array as="points" />
            <mxPoint as="offset" />
          </mxGeometry>
        </mxCell>
        <mxCell id="zLAh7wrK_-R1qrHKDbDB-313" value="Додавання записів" style="ellipse;whiteSpace=wrap;html=1;" vertex="1" parent="1">
          <mxGeometry x="-380" y="1110" width="110" height="60" as="geometry" />
        </mxCell>
        <mxCell id="zLAh7wrK_-R1qrHKDbDB-314" value="&amp;lt;&amp;lt;include&amp;gt;&amp;gt;" style="html=1;verticalAlign=bottom;labelBackgroundColor=none;endArrow=open;endFill=0;dashed=1;rounded=0;exitX=1;exitY=0.5;exitDx=0;exitDy=0;entryX=0;entryY=0.5;entryDx=0;entryDy=0;" edge="1" parent="1" source="zLAh7wrK_-R1qrHKDbDB-270" target="zLAh7wrK_-R1qrHKDbDB-313">
          <mxGeometry x="-0.0062" y="-5" width="160" relative="1" as="geometry">
            <mxPoint x="-435" y="1160" as="sourcePoint" />
            <mxPoint x="-457" y="1066" as="targetPoint" />
            <Array as="points" />
            <mxPoint as="offset" />
          </mxGeometry>
        </mxCell>
        <mxCell id="MurQ-FWvQ-4kBOmV4Xmt-5" style="edgeStyle=orthogonalEdgeStyle;rounded=0;orthogonalLoop=1;jettySize=auto;html=1;exitX=1;exitY=0.5;exitDx=0;exitDy=0;entryX=0;entryY=0.5;entryDx=0;entryDy=0;" edge="1" parent="1" source="MurQ-FWvQ-4kBOmV4Xmt-2" target="zLAh7wrK_-R1qrHKDbDB-89">
          <mxGeometry relative="1" as="geometry" />
        </mxCell>
        <mxCell id="MurQ-FWvQ-4kBOmV4Xmt-2" value="&lt;div&gt;Авторизація&lt;/div&gt;" style="ellipse;whiteSpace=wrap;html=1;" vertex="1" parent="1">
          <mxGeometry x="70" y="166" width="90" height="40" as="geometry" />
        </mxCell>
        <mxCell id="MurQ-FWvQ-4kBOmV4Xmt-3" style="edgeStyle=orthogonalEdgeStyle;rounded=0;orthogonalLoop=1;jettySize=auto;html=1;exitX=1;exitY=0.3333333333333333;exitDx=0;exitDy=0;exitPerimeter=0;entryX=0.262;entryY=0.825;entryDx=0;entryDy=0;entryPerimeter=0;" edge="1" parent="1" source="zLAh7wrK_-R1qrHKDbDB-117" target="zLAh7wrK_-R1qrHKDbDB-64">
          <mxGeometry relative="1" as="geometry" />
        </mxCell>
        <mxCell id="OqBfnM5_ypo4ZWrL3lW0-1" value="&lt;b&gt;&lt;span style=&quot;font-size:16.0pt;line-height:106%;&lt;br/&gt;font-family:&amp;quot;Times New Roman&amp;quot;,serif;mso-fareast-font-family:Calibri;mso-fareast-theme-font:&lt;br/&gt;minor-latin;mso-ansi-language:UK;mso-fareast-language:EN-US;mso-bidi-language:&lt;br/&gt;AR-SA;mso-bidi-font-weight:bold&quot;&gt; Виконання&lt;br&gt;робіт персоналом &lt;/span&gt;&lt;/b&gt;" style="text;html=1;align=center;verticalAlign=middle;resizable=0;points=[];autosize=1;strokeColor=none;fillColor=none;" vertex="1" parent="1">
          <mxGeometry x="1005" y="950" width="210" height="60" as="geometry" />
        </mxCell>
        <object placeholders="1" c4Name="Система управління фермою" c4Type="SystemScopeBoundary" c4Application="Software System" label="&lt;font style=&quot;font-size: 16px&quot;&gt;&lt;b&gt;&lt;div style=&quot;text-align: left&quot;&gt;%c4Name%&lt;/div&gt;&lt;/b&gt;&lt;/font&gt;&lt;div style=&quot;text-align: left&quot;&gt;[%c4Application%]&lt;/div&gt;" id="OqBfnM5_ypo4ZWrL3lW0-2">
          <mxCell style="rounded=1;fontSize=11;whiteSpace=wrap;html=1;dashed=1;arcSize=20;fillColor=none;strokeColor=#666666;fontColor=#333333;labelBackgroundColor=none;align=left;verticalAlign=bottom;labelBorderColor=none;spacingTop=0;spacing=10;dashPattern=8 4;metaEdit=1;rotatable=0;perimeter=rectanglePerimeter;noLabel=0;labelPadding=0;allowArrows=0;connectable=0;expand=0;recursiveResize=0;editable=1;pointerEvents=0;absoluteArcSize=1;points=[[0.25,0,0],[0.5,0,0],[0.75,0,0],[1,0.25,0],[1,0.5,0],[1,0.75,0],[0.75,1,0],[0.5,1,0],[0.25,1,0],[0,0.75,0],[0,0.5,0],[0,0.25,0]];" vertex="1" parent="1">
            <mxGeometry x="610" y="1040" width="1000" height="350" as="geometry" />
          </mxCell>
        </object>
      </root>
    </mxGraphModel>
  </diagram>
  <diagram id="Fv6zVhvhZokRt7RGiqQo" name="sequence diagrams">
    <mxGraphModel grid="1" page="1" gridSize="10" guides="1" tooltips="1" connect="1" arrows="1" fold="1" pageScale="1" pageWidth="850" pageHeight="1100" math="0" shadow="0">
      <root>
        <mxCell id="0" />
        <mxCell id="1" parent="0" />
        <mxCell id="WRKvFnNUePydnDmaV0V2-1" value="Власник" style="shape=umlActor;verticalLabelPosition=bottom;verticalAlign=top;html=1;outlineConnect=0;" vertex="1" parent="1">
          <mxGeometry x="-3870" y="60" width="50" height="73" as="geometry" />
        </mxCell>
        <mxCell id="WRKvFnNUePydnDmaV0V2-2" value="" style="endArrow=none;dashed=1;html=1;rounded=0;entryX=0.5;entryY=0.5;entryDx=0;entryDy=0;entryPerimeter=0;" edge="1" parent="1" target="WRKvFnNUePydnDmaV0V2-1">
          <mxGeometry width="50" height="50" relative="1" as="geometry">
            <mxPoint x="-3840" y="790" as="sourcePoint" />
            <mxPoint x="-3880" y="210" as="targetPoint" />
          </mxGeometry>
        </mxCell>
        <mxCell id="WRKvFnNUePydnDmaV0V2-3" value="Інтерфейс" style="html=1;whiteSpace=wrap;" vertex="1" parent="1">
          <mxGeometry x="-3760" y="80" width="150" height="50" as="geometry" />
        </mxCell>
        <mxCell id="WRKvFnNUePydnDmaV0V2-4" value="БД" style="html=1;whiteSpace=wrap;" vertex="1" parent="1">
          <mxGeometry x="-3380" y="80" width="150" height="50" as="geometry" />
        </mxCell>
        <mxCell id="WRKvFnNUePydnDmaV0V2-5" value="Сервер додатку" style="html=1;whiteSpace=wrap;" vertex="1" parent="1">
          <mxGeometry x="-3570" y="80" width="150" height="50" as="geometry" />
        </mxCell>
        <mxCell id="WRKvFnNUePydnDmaV0V2-6" value="" style="endArrow=none;dashed=1;html=1;rounded=0;" edge="1" parent="1" target="WRKvFnNUePydnDmaV0V2-5">
          <mxGeometry width="50" height="50" relative="1" as="geometry">
            <mxPoint x="-3495" y="190" as="sourcePoint" />
            <mxPoint x="-3520" y="210" as="targetPoint" />
          </mxGeometry>
        </mxCell>
        <mxCell id="WRKvFnNUePydnDmaV0V2-7" value="" style="endArrow=none;dashed=1;html=1;rounded=0;" edge="1" parent="1" target="WRKvFnNUePydnDmaV0V2-3">
          <mxGeometry width="50" height="50" relative="1" as="geometry">
            <mxPoint x="-3685" y="790" as="sourcePoint" />
            <mxPoint x="-3690" y="130" as="targetPoint" />
          </mxGeometry>
        </mxCell>
        <mxCell id="WRKvFnNUePydnDmaV0V2-8" value="" style="endArrow=none;dashed=1;html=1;rounded=0;entryX=0.5;entryY=1;entryDx=0;entryDy=0;" edge="1" parent="1" target="WRKvFnNUePydnDmaV0V2-4">
          <mxGeometry width="50" height="50" relative="1" as="geometry">
            <mxPoint x="-3307" y="780" as="sourcePoint" />
            <mxPoint x="-3307" y="122" as="targetPoint" />
          </mxGeometry>
        </mxCell>
        <mxCell id="WRKvFnNUePydnDmaV0V2-9" value="Відкриває сторінку логіну" style="html=1;verticalAlign=bottom;endArrow=block;curved=0;rounded=0;" edge="1" parent="1">
          <mxGeometry width="80" relative="1" as="geometry">
            <mxPoint x="-3840" y="166.5" as="sourcePoint" />
            <mxPoint x="-3680" y="166.5" as="targetPoint" />
          </mxGeometry>
        </mxCell>
        <mxCell id="WRKvFnNUePydnDmaV0V2-10" value="Запит на авторизацію" style="html=1;verticalAlign=bottom;endArrow=block;curved=0;rounded=0;" edge="1" parent="1">
          <mxGeometry width="80" relative="1" as="geometry">
            <mxPoint x="-3680" y="176.5" as="sourcePoint" />
            <mxPoint x="-3490" y="176.5" as="targetPoint" />
          </mxGeometry>
        </mxCell>
        <mxCell id="WRKvFnNUePydnDmaV0V2-11" value="Перевірка даних" style="html=1;verticalAlign=bottom;endArrow=block;curved=0;rounded=0;" edge="1" parent="1">
          <mxGeometry width="80" relative="1" as="geometry">
            <mxPoint x="-3490" y="180" as="sourcePoint" />
            <mxPoint x="-3300" y="180" as="targetPoint" />
          </mxGeometry>
        </mxCell>
        <mxCell id="WRKvFnNUePydnDmaV0V2-12" value="Валідні дані" style="html=1;verticalAlign=bottom;endArrow=open;dashed=1;endSize=8;curved=0;rounded=0;" edge="1" parent="1">
          <mxGeometry relative="1" as="geometry">
            <mxPoint x="-3300" y="223" as="sourcePoint" />
            <mxPoint x="-3490" y="223" as="targetPoint" />
          </mxGeometry>
        </mxCell>
        <mxCell id="WRKvFnNUePydnDmaV0V2-13" value="Авторизація успішна" style="html=1;verticalAlign=bottom;endArrow=open;dashed=1;endSize=8;curved=0;rounded=0;" edge="1" parent="1">
          <mxGeometry relative="1" as="geometry">
            <mxPoint x="-3500" y="232.5" as="sourcePoint" />
            <mxPoint x="-3690" y="232.5" as="targetPoint" />
          </mxGeometry>
        </mxCell>
        <mxCell id="WRKvFnNUePydnDmaV0V2-14" value="Відкриває сторінку для керування завданнями" style="html=1;verticalAlign=bottom;endArrow=block;curved=0;rounded=0;" edge="1" parent="1">
          <mxGeometry width="80" relative="1" as="geometry">
            <mxPoint x="-3840" y="253" as="sourcePoint" />
            <mxPoint x="-3680" y="253" as="targetPoint" />
          </mxGeometry>
        </mxCell>
        <mxCell id="WRKvFnNUePydnDmaV0V2-15" value="Запит на завантаження розділу" style="html=1;verticalAlign=bottom;endArrow=block;curved=0;rounded=0;" edge="1" parent="1">
          <mxGeometry width="80" relative="1" as="geometry">
            <mxPoint x="-3680" y="273" as="sourcePoint" />
            <mxPoint x="-3490" y="273" as="targetPoint" />
          </mxGeometry>
        </mxCell>
        <mxCell id="WRKvFnNUePydnDmaV0V2-16" value="Отримання заваднь" style="html=1;verticalAlign=bottom;endArrow=block;curved=0;rounded=0;" edge="1" parent="1">
          <mxGeometry width="80" relative="1" as="geometry">
            <mxPoint x="-3490" y="290" as="sourcePoint" />
            <mxPoint x="-3300" y="290" as="targetPoint" />
          </mxGeometry>
        </mxCell>
        <mxCell id="WRKvFnNUePydnDmaV0V2-17" value="Список завдань" style="html=1;verticalAlign=bottom;endArrow=open;dashed=1;endSize=8;curved=0;rounded=0;" edge="1" parent="1">
          <mxGeometry relative="1" as="geometry">
            <mxPoint x="-3310" y="320" as="sourcePoint" />
            <mxPoint x="-3500" y="320" as="targetPoint" />
          </mxGeometry>
        </mxCell>
        <mxCell id="WRKvFnNUePydnDmaV0V2-18" value="Відображення завдань" style="html=1;verticalAlign=bottom;endArrow=open;dashed=1;endSize=8;curved=0;rounded=0;" edge="1" parent="1">
          <mxGeometry relative="1" as="geometry">
            <mxPoint x="-3500" y="340" as="sourcePoint" />
            <mxPoint x="-3690" y="340" as="targetPoint" />
          </mxGeometry>
        </mxCell>
        <mxCell id="WRKvFnNUePydnDmaV0V2-19" value="Надсилає форму нового завдання" style="html=1;verticalAlign=bottom;endArrow=block;curved=0;rounded=0;" edge="1" parent="1">
          <mxGeometry width="80" relative="1" as="geometry">
            <mxPoint x="-3840" y="362.5" as="sourcePoint" />
            <mxPoint x="-3680" y="362.5" as="targetPoint" />
          </mxGeometry>
        </mxCell>
        <mxCell id="WRKvFnNUePydnDmaV0V2-20" value="Передає дані завдання" style="html=1;verticalAlign=bottom;endArrow=block;curved=0;rounded=0;" edge="1" parent="1">
          <mxGeometry width="80" relative="1" as="geometry">
            <mxPoint x="-3680" y="379" as="sourcePoint" />
            <mxPoint x="-3490" y="379" as="targetPoint" />
          </mxGeometry>
        </mxCell>
        <mxCell id="WRKvFnNUePydnDmaV0V2-21" value="Зберігає завдання" style="html=1;verticalAlign=bottom;endArrow=block;curved=0;rounded=0;" edge="1" parent="1">
          <mxGeometry width="80" relative="1" as="geometry">
            <mxPoint x="-3500" y="392" as="sourcePoint" />
            <mxPoint x="-3300" y="392" as="targetPoint" />
          </mxGeometry>
        </mxCell>
        <mxCell id="WRKvFnNUePydnDmaV0V2-22" value="Підтвердження збереження" style="html=1;verticalAlign=bottom;endArrow=open;dashed=1;endSize=8;curved=0;rounded=0;" edge="1" parent="1">
          <mxGeometry relative="1" as="geometry">
            <mxPoint x="-3310" y="412" as="sourcePoint" />
            <mxPoint x="-3500" y="412" as="targetPoint" />
          </mxGeometry>
        </mxCell>
        <mxCell id="WRKvFnNUePydnDmaV0V2-23" value="" style="endArrow=none;dashed=1;html=1;rounded=0;" edge="1" parent="1">
          <mxGeometry width="50" height="50" relative="1" as="geometry">
            <mxPoint x="-3495" y="790" as="sourcePoint" />
            <mxPoint x="-3495" y="206" as="targetPoint" />
          </mxGeometry>
        </mxCell>
        <mxCell id="WRKvFnNUePydnDmaV0V2-24" value="Передає оновлення завдання" style="html=1;verticalAlign=bottom;endArrow=block;curved=0;rounded=0;" edge="1" parent="1">
          <mxGeometry width="80" relative="1" as="geometry">
            <mxPoint x="-3680" y="522.5" as="sourcePoint" />
            <mxPoint x="-3490" y="522.5" as="targetPoint" />
          </mxGeometry>
        </mxCell>
        <mxCell id="WRKvFnNUePydnDmaV0V2-25" value="Оновлення запису" style="html=1;verticalAlign=bottom;endArrow=block;curved=0;rounded=0;" edge="1" parent="1">
          <mxGeometry width="80" relative="1" as="geometry">
            <mxPoint x="-3502.5" y="540" as="sourcePoint" />
            <mxPoint x="-3302.5" y="540" as="targetPoint" />
          </mxGeometry>
        </mxCell>
        <mxCell id="WRKvFnNUePydnDmaV0V2-26" value="Підтвердження" style="html=1;verticalAlign=bottom;endArrow=open;dashed=1;endSize=8;curved=0;rounded=0;" edge="1" parent="1">
          <mxGeometry relative="1" as="geometry">
            <mxPoint x="-3310" y="569" as="sourcePoint" />
            <mxPoint x="-3500" y="569" as="targetPoint" />
          </mxGeometry>
        </mxCell>
        <mxCell id="WRKvFnNUePydnDmaV0V2-27" value="Вихід із системи" style="html=1;verticalAlign=bottom;endArrow=block;curved=0;rounded=0;" edge="1" parent="1">
          <mxGeometry width="80" relative="1" as="geometry">
            <mxPoint x="-3840" y="613" as="sourcePoint" />
            <mxPoint x="-3680" y="613" as="targetPoint" />
          </mxGeometry>
        </mxCell>
        <mxCell id="WRKvFnNUePydnDmaV0V2-28" value="Ветеринар" style="shape=umlActor;verticalLabelPosition=bottom;verticalAlign=top;html=1;outlineConnect=0;" vertex="1" parent="1">
          <mxGeometry x="-5270" y="100" width="50" height="73" as="geometry" />
        </mxCell>
        <mxCell id="WRKvFnNUePydnDmaV0V2-29" value="" style="endArrow=none;dashed=1;html=1;rounded=0;entryX=0.5;entryY=0.5;entryDx=0;entryDy=0;entryPerimeter=0;" edge="1" parent="1" target="WRKvFnNUePydnDmaV0V2-28">
          <mxGeometry width="50" height="50" relative="1" as="geometry">
            <mxPoint x="-5240" y="830" as="sourcePoint" />
            <mxPoint x="-5280" y="250" as="targetPoint" />
          </mxGeometry>
        </mxCell>
        <mxCell id="WRKvFnNUePydnDmaV0V2-30" value="Інтерфейс" style="html=1;whiteSpace=wrap;" vertex="1" parent="1">
          <mxGeometry x="-5160" y="120" width="150" height="50" as="geometry" />
        </mxCell>
        <mxCell id="WRKvFnNUePydnDmaV0V2-31" value="БД" style="html=1;whiteSpace=wrap;" vertex="1" parent="1">
          <mxGeometry x="-4780" y="120" width="150" height="50" as="geometry" />
        </mxCell>
        <mxCell id="WRKvFnNUePydnDmaV0V2-32" value="Сервер додатку" style="html=1;whiteSpace=wrap;" vertex="1" parent="1">
          <mxGeometry x="-4970" y="120" width="150" height="50" as="geometry" />
        </mxCell>
        <mxCell id="WRKvFnNUePydnDmaV0V2-33" value="" style="endArrow=none;dashed=1;html=1;rounded=0;" edge="1" parent="1" target="WRKvFnNUePydnDmaV0V2-32">
          <mxGeometry width="50" height="50" relative="1" as="geometry">
            <mxPoint x="-4895" y="230" as="sourcePoint" />
            <mxPoint x="-4920" y="250" as="targetPoint" />
          </mxGeometry>
        </mxCell>
        <mxCell id="WRKvFnNUePydnDmaV0V2-34" value="" style="endArrow=none;dashed=1;html=1;rounded=0;" edge="1" parent="1" target="WRKvFnNUePydnDmaV0V2-30">
          <mxGeometry width="50" height="50" relative="1" as="geometry">
            <mxPoint x="-5085" y="830" as="sourcePoint" />
            <mxPoint x="-5090" y="170" as="targetPoint" />
          </mxGeometry>
        </mxCell>
        <mxCell id="WRKvFnNUePydnDmaV0V2-35" value="" style="endArrow=none;dashed=1;html=1;rounded=0;entryX=0.5;entryY=1;entryDx=0;entryDy=0;" edge="1" parent="1" target="WRKvFnNUePydnDmaV0V2-31">
          <mxGeometry width="50" height="50" relative="1" as="geometry">
            <mxPoint x="-4707" y="820" as="sourcePoint" />
            <mxPoint x="-4707" y="162" as="targetPoint" />
          </mxGeometry>
        </mxCell>
        <mxCell id="WRKvFnNUePydnDmaV0V2-36" value="Відкриває сторінку логіну" style="html=1;verticalAlign=bottom;endArrow=block;curved=0;rounded=0;" edge="1" parent="1">
          <mxGeometry width="80" relative="1" as="geometry">
            <mxPoint x="-5240" y="206.5" as="sourcePoint" />
            <mxPoint x="-5080" y="206.5" as="targetPoint" />
          </mxGeometry>
        </mxCell>
        <mxCell id="WRKvFnNUePydnDmaV0V2-37" value="Запит на авторизацію" style="html=1;verticalAlign=bottom;endArrow=block;curved=0;rounded=0;" edge="1" parent="1">
          <mxGeometry width="80" relative="1" as="geometry">
            <mxPoint x="-5080" y="216.5" as="sourcePoint" />
            <mxPoint x="-4890" y="216.5" as="targetPoint" />
          </mxGeometry>
        </mxCell>
        <mxCell id="WRKvFnNUePydnDmaV0V2-38" value="Перевірка даних" style="html=1;verticalAlign=bottom;endArrow=block;curved=0;rounded=0;" edge="1" parent="1">
          <mxGeometry width="80" relative="1" as="geometry">
            <mxPoint x="-4890" y="220" as="sourcePoint" />
            <mxPoint x="-4700" y="220" as="targetPoint" />
          </mxGeometry>
        </mxCell>
        <mxCell id="WRKvFnNUePydnDmaV0V2-39" value="Валідні дані" style="html=1;verticalAlign=bottom;endArrow=open;dashed=1;endSize=8;curved=0;rounded=0;" edge="1" parent="1">
          <mxGeometry relative="1" as="geometry">
            <mxPoint x="-4700" y="263" as="sourcePoint" />
            <mxPoint x="-4890" y="263" as="targetPoint" />
          </mxGeometry>
        </mxCell>
        <mxCell id="WRKvFnNUePydnDmaV0V2-40" value="Авторизація успішна" style="html=1;verticalAlign=bottom;endArrow=open;dashed=1;endSize=8;curved=0;rounded=0;" edge="1" parent="1">
          <mxGeometry relative="1" as="geometry">
            <mxPoint x="-4900" y="272.5" as="sourcePoint" />
            <mxPoint x="-5090" y="272.5" as="targetPoint" />
          </mxGeometry>
        </mxCell>
        <mxCell id="WRKvFnNUePydnDmaV0V2-41" value="Відкриває сторінку обліку тварин" style="html=1;verticalAlign=bottom;endArrow=block;curved=0;rounded=0;" edge="1" parent="1">
          <mxGeometry width="80" relative="1" as="geometry">
            <mxPoint x="-5240" y="293" as="sourcePoint" />
            <mxPoint x="-5080" y="293" as="targetPoint" />
          </mxGeometry>
        </mxCell>
        <mxCell id="WRKvFnNUePydnDmaV0V2-42" value="Запит на завантаження розділу" style="html=1;verticalAlign=bottom;endArrow=block;curved=0;rounded=0;" edge="1" parent="1">
          <mxGeometry width="80" relative="1" as="geometry">
            <mxPoint x="-5080" y="313" as="sourcePoint" />
            <mxPoint x="-4890" y="313" as="targetPoint" />
          </mxGeometry>
        </mxCell>
        <mxCell id="WRKvFnNUePydnDmaV0V2-43" value="Отримання записів" style="html=1;verticalAlign=bottom;endArrow=block;curved=0;rounded=0;" edge="1" parent="1">
          <mxGeometry width="80" relative="1" as="geometry">
            <mxPoint x="-4890" y="330" as="sourcePoint" />
            <mxPoint x="-4700" y="330" as="targetPoint" />
          </mxGeometry>
        </mxCell>
        <mxCell id="WRKvFnNUePydnDmaV0V2-44" value="&lt;div&gt;Дані про тварин&lt;/div&gt;" style="html=1;verticalAlign=bottom;endArrow=open;dashed=1;endSize=8;curved=0;rounded=0;" edge="1" parent="1">
          <mxGeometry relative="1" as="geometry">
            <mxPoint x="-4710" y="360" as="sourcePoint" />
            <mxPoint x="-4900" y="360" as="targetPoint" />
          </mxGeometry>
        </mxCell>
        <mxCell id="WRKvFnNUePydnDmaV0V2-45" value="Відображення/пошук карток тварин" style="html=1;verticalAlign=bottom;endArrow=open;dashed=1;endSize=8;curved=0;rounded=0;" edge="1" parent="1">
          <mxGeometry relative="1" as="geometry">
            <mxPoint x="-4902.5" y="371.82" as="sourcePoint" />
            <mxPoint x="-5092.5" y="371.82" as="targetPoint" />
          </mxGeometry>
        </mxCell>
        <mxCell id="WRKvFnNUePydnDmaV0V2-46" value="" style="endArrow=none;dashed=1;html=1;rounded=0;" edge="1" parent="1">
          <mxGeometry width="50" height="50" relative="1" as="geometry">
            <mxPoint x="-4895" y="830" as="sourcePoint" />
            <mxPoint x="-4895" y="246" as="targetPoint" />
          </mxGeometry>
        </mxCell>
        <mxCell id="WRKvFnNUePydnDmaV0V2-47" value="Вихід із системи" style="html=1;verticalAlign=bottom;endArrow=block;curved=0;rounded=0;" edge="1" parent="1">
          <mxGeometry width="80" relative="1" as="geometry">
            <mxPoint x="-5240" y="510" as="sourcePoint" />
            <mxPoint x="-5080" y="510" as="targetPoint" />
          </mxGeometry>
        </mxCell>
        <mxCell id="WRKvFnNUePydnDmaV0V2-48" value="Власник" style="shape=umlActor;verticalLabelPosition=bottom;verticalAlign=top;html=1;outlineConnect=0;" vertex="1" parent="1">
          <mxGeometry x="-4546" y="1070" width="50" height="73" as="geometry" />
        </mxCell>
        <mxCell id="WRKvFnNUePydnDmaV0V2-49" value="" style="endArrow=none;dashed=1;html=1;rounded=0;entryX=0.5;entryY=0.5;entryDx=0;entryDy=0;entryPerimeter=0;" edge="1" parent="1" target="WRKvFnNUePydnDmaV0V2-48">
          <mxGeometry width="50" height="50" relative="1" as="geometry">
            <mxPoint x="-4516" y="1800" as="sourcePoint" />
            <mxPoint x="-4556" y="1220" as="targetPoint" />
          </mxGeometry>
        </mxCell>
        <mxCell id="WRKvFnNUePydnDmaV0V2-50" value="Інтерфейс" style="html=1;whiteSpace=wrap;" vertex="1" parent="1">
          <mxGeometry x="-4436" y="1090" width="150" height="50" as="geometry" />
        </mxCell>
        <mxCell id="WRKvFnNUePydnDmaV0V2-51" value="БД" style="html=1;whiteSpace=wrap;" vertex="1" parent="1">
          <mxGeometry x="-4056" y="1090" width="150" height="50" as="geometry" />
        </mxCell>
        <mxCell id="WRKvFnNUePydnDmaV0V2-52" value="Сервер додатку" style="html=1;whiteSpace=wrap;" vertex="1" parent="1">
          <mxGeometry x="-4246" y="1090" width="150" height="50" as="geometry" />
        </mxCell>
        <mxCell id="WRKvFnNUePydnDmaV0V2-53" value="" style="endArrow=none;dashed=1;html=1;rounded=0;" edge="1" parent="1" target="WRKvFnNUePydnDmaV0V2-52">
          <mxGeometry width="50" height="50" relative="1" as="geometry">
            <mxPoint x="-4171" y="1200.0000000000005" as="sourcePoint" />
            <mxPoint x="-4196" y="1220" as="targetPoint" />
          </mxGeometry>
        </mxCell>
        <mxCell id="WRKvFnNUePydnDmaV0V2-54" value="" style="endArrow=none;dashed=1;html=1;rounded=0;" edge="1" parent="1" target="WRKvFnNUePydnDmaV0V2-50">
          <mxGeometry width="50" height="50" relative="1" as="geometry">
            <mxPoint x="-4361" y="1800" as="sourcePoint" />
            <mxPoint x="-4366" y="1140" as="targetPoint" />
          </mxGeometry>
        </mxCell>
        <mxCell id="WRKvFnNUePydnDmaV0V2-55" value="" style="endArrow=none;dashed=1;html=1;rounded=0;entryX=0.5;entryY=1;entryDx=0;entryDy=0;" edge="1" parent="1" target="WRKvFnNUePydnDmaV0V2-51">
          <mxGeometry width="50" height="50" relative="1" as="geometry">
            <mxPoint x="-3983" y="1790" as="sourcePoint" />
            <mxPoint x="-3983" y="1132" as="targetPoint" />
          </mxGeometry>
        </mxCell>
        <mxCell id="WRKvFnNUePydnDmaV0V2-56" value="Відкриває сторінку логіну" style="html=1;verticalAlign=bottom;endArrow=block;curved=0;rounded=0;" edge="1" parent="1">
          <mxGeometry width="80" relative="1" as="geometry">
            <mxPoint x="-4516" y="1176.5" as="sourcePoint" />
            <mxPoint x="-4356" y="1176.5" as="targetPoint" />
          </mxGeometry>
        </mxCell>
        <mxCell id="WRKvFnNUePydnDmaV0V2-57" value="Запит на авторизацію" style="html=1;verticalAlign=bottom;endArrow=block;curved=0;rounded=0;" edge="1" parent="1">
          <mxGeometry width="80" relative="1" as="geometry">
            <mxPoint x="-4356" y="1186.5" as="sourcePoint" />
            <mxPoint x="-4166" y="1186.5" as="targetPoint" />
          </mxGeometry>
        </mxCell>
        <mxCell id="WRKvFnNUePydnDmaV0V2-58" value="Перевірка даних" style="html=1;verticalAlign=bottom;endArrow=block;curved=0;rounded=0;" edge="1" parent="1">
          <mxGeometry width="80" relative="1" as="geometry">
            <mxPoint x="-4166" y="1190" as="sourcePoint" />
            <mxPoint x="-3976" y="1190" as="targetPoint" />
          </mxGeometry>
        </mxCell>
        <mxCell id="WRKvFnNUePydnDmaV0V2-59" value="Валідні дані" style="html=1;verticalAlign=bottom;endArrow=open;dashed=1;endSize=8;curved=0;rounded=0;" edge="1" parent="1">
          <mxGeometry relative="1" as="geometry">
            <mxPoint x="-3976" y="1233" as="sourcePoint" />
            <mxPoint x="-4166" y="1233" as="targetPoint" />
          </mxGeometry>
        </mxCell>
        <mxCell id="WRKvFnNUePydnDmaV0V2-60" value="Авторизація успішна" style="html=1;verticalAlign=bottom;endArrow=open;dashed=1;endSize=8;curved=0;rounded=0;" edge="1" parent="1">
          <mxGeometry relative="1" as="geometry">
            <mxPoint x="-4176" y="1242.5" as="sourcePoint" />
            <mxPoint x="-4366" y="1242.5" as="targetPoint" />
          </mxGeometry>
        </mxCell>
        <mxCell id="WRKvFnNUePydnDmaV0V2-61" value="Відкриває сторінку для керування ресурсами" style="html=1;verticalAlign=bottom;endArrow=block;curved=0;rounded=0;" edge="1" parent="1">
          <mxGeometry width="80" relative="1" as="geometry">
            <mxPoint x="-4516" y="1263" as="sourcePoint" />
            <mxPoint x="-4356" y="1263" as="targetPoint" />
          </mxGeometry>
        </mxCell>
        <mxCell id="WRKvFnNUePydnDmaV0V2-62" value="Запит на завантаження розділу" style="html=1;verticalAlign=bottom;endArrow=block;curved=0;rounded=0;" edge="1" parent="1">
          <mxGeometry width="80" relative="1" as="geometry">
            <mxPoint x="-4356" y="1283" as="sourcePoint" />
            <mxPoint x="-4166" y="1283" as="targetPoint" />
          </mxGeometry>
        </mxCell>
        <mxCell id="WRKvFnNUePydnDmaV0V2-63" value="Отримання запасів кормів" style="html=1;verticalAlign=bottom;endArrow=block;curved=0;rounded=0;" edge="1" parent="1">
          <mxGeometry width="80" relative="1" as="geometry">
            <mxPoint x="-4166" y="1300" as="sourcePoint" />
            <mxPoint x="-3976" y="1300" as="targetPoint" />
          </mxGeometry>
        </mxCell>
        <mxCell id="WRKvFnNUePydnDmaV0V2-64" value="Дані про запаси" style="html=1;verticalAlign=bottom;endArrow=open;dashed=1;endSize=8;curved=0;rounded=0;" edge="1" parent="1">
          <mxGeometry relative="1" as="geometry">
            <mxPoint x="-3986" y="1330" as="sourcePoint" />
            <mxPoint x="-4176" y="1330" as="targetPoint" />
          </mxGeometry>
        </mxCell>
        <mxCell id="WRKvFnNUePydnDmaV0V2-65" value="Відображення запасів та проведдення порівняння" style="html=1;verticalAlign=bottom;endArrow=open;dashed=1;endSize=8;curved=0;rounded=0;" edge="1" parent="1">
          <mxGeometry relative="1" as="geometry">
            <mxPoint x="-4176" y="1350" as="sourcePoint" />
            <mxPoint x="-4366" y="1350" as="targetPoint" />
          </mxGeometry>
        </mxCell>
        <mxCell id="WRKvFnNUePydnDmaV0V2-66" value="" style="endArrow=none;dashed=1;html=1;rounded=0;" edge="1" parent="1">
          <mxGeometry width="50" height="50" relative="1" as="geometry">
            <mxPoint x="-4171" y="1800" as="sourcePoint" />
            <mxPoint x="-4171" y="1216" as="targetPoint" />
          </mxGeometry>
        </mxCell>
        <mxCell id="WRKvFnNUePydnDmaV0V2-67" value="Вихід із системи" style="html=1;verticalAlign=bottom;endArrow=block;curved=0;rounded=0;" edge="1" parent="1">
          <mxGeometry width="80" relative="1" as="geometry">
            <mxPoint x="-4520" y="1410" as="sourcePoint" />
            <mxPoint x="-4360" y="1410" as="targetPoint" />
          </mxGeometry>
        </mxCell>
        <mxCell id="WRKvFnNUePydnDmaV0V2-68" value="Не відправляє сповіщення" style="html=1;verticalAlign=bottom;endArrow=open;dashed=1;endSize=8;curved=0;rounded=0;" edge="1" parent="1">
          <mxGeometry relative="1" as="geometry">
            <mxPoint x="-4166" y="1382" as="sourcePoint" />
            <mxPoint x="-4356" y="1382" as="targetPoint" />
          </mxGeometry>
        </mxCell>
        <mxCell id="WRKvFnNUePydnDmaV0V2-69" value="Відкриває картку тварини" style="html=1;verticalAlign=bottom;endArrow=block;curved=0;rounded=0;" edge="1" parent="1">
          <mxGeometry width="80" relative="1" as="geometry">
            <mxPoint x="-5240" y="393" as="sourcePoint" />
            <mxPoint x="-5080" y="393" as="targetPoint" />
          </mxGeometry>
        </mxCell>
        <mxCell id="WRKvFnNUePydnDmaV0V2-70" value="Запит на відкриття картки" style="html=1;verticalAlign=bottom;endArrow=block;curved=0;rounded=0;" edge="1" parent="1">
          <mxGeometry width="80" relative="1" as="geometry">
            <mxPoint x="-5080" y="413" as="sourcePoint" />
            <mxPoint x="-4890" y="413" as="targetPoint" />
          </mxGeometry>
        </mxCell>
        <mxCell id="WRKvFnNUePydnDmaV0V2-71" value="&lt;div&gt;Отримання картки тварини&lt;/div&gt;" style="html=1;verticalAlign=bottom;endArrow=block;curved=0;rounded=0;" edge="1" parent="1">
          <mxGeometry width="80" relative="1" as="geometry">
            <mxPoint x="-4900" y="430" as="sourcePoint" />
            <mxPoint x="-4710" y="430" as="targetPoint" />
          </mxGeometry>
        </mxCell>
        <mxCell id="WRKvFnNUePydnDmaV0V2-72" value="&lt;div&gt;Дані про тварину&lt;/div&gt;" style="html=1;verticalAlign=bottom;endArrow=open;dashed=1;endSize=8;curved=0;rounded=0;" edge="1" parent="1">
          <mxGeometry relative="1" as="geometry">
            <mxPoint x="-4710" y="450" as="sourcePoint" />
            <mxPoint x="-4900" y="450" as="targetPoint" />
          </mxGeometry>
        </mxCell>
        <mxCell id="WRKvFnNUePydnDmaV0V2-73" value="Відображення картки тварини" style="html=1;verticalAlign=bottom;endArrow=open;dashed=1;endSize=8;curved=0;rounded=0;" edge="1" parent="1">
          <mxGeometry relative="1" as="geometry">
            <mxPoint x="-4892.5" y="472.16999999999996" as="sourcePoint" />
            <mxPoint x="-5082.5" y="472.16999999999996" as="targetPoint" />
          </mxGeometry>
        </mxCell>
        <mxCell id="WRKvFnNUePydnDmaV0V2-74" value="Відправка сповіщення" style="html=1;verticalAlign=bottom;endArrow=open;dashed=1;endSize=8;curved=0;rounded=0;" edge="1" parent="1">
          <mxGeometry relative="1" as="geometry">
            <mxPoint x="-3500" y="450" as="sourcePoint" />
            <mxPoint x="-3690" y="450" as="targetPoint" />
          </mxGeometry>
        </mxCell>
        <mxCell id="WRKvFnNUePydnDmaV0V2-75" value="Перегляд сповіщення" style="html=1;verticalAlign=bottom;endArrow=block;curved=0;rounded=0;" edge="1" parent="1">
          <mxGeometry width="80" relative="1" as="geometry">
            <mxPoint x="-3840" y="489.29" as="sourcePoint" />
            <mxPoint x="-3680" y="489.29" as="targetPoint" />
          </mxGeometry>
        </mxCell>
        <mxCell id="WRKvFnNUePydnDmaV0V2-76" value="Відображення даних" style="html=1;verticalAlign=bottom;endArrow=open;dashed=1;endSize=8;curved=0;rounded=0;" edge="1" parent="1">
          <mxGeometry relative="1" as="geometry">
            <mxPoint x="-3490" y="590" as="sourcePoint" />
            <mxPoint x="-3680" y="590" as="targetPoint" />
          </mxGeometry>
        </mxCell>
        <mxCell id="WRKvFnNUePydnDmaV0V2-77" value="&lt;b&gt;&lt;span style=&quot;font-size:16.0pt;line-height:106%;&lt;br/&gt;font-family:&amp;quot;Times New Roman&amp;quot;,serif;mso-fareast-font-family:Calibri;mso-fareast-theme-font:&lt;br/&gt;minor-latin;mso-ansi-language:UK;mso-fareast-language:EN-US;mso-bidi-language:&lt;br/&gt;AR-SA;mso-bidi-font-weight:bold&quot;&gt;Планування завдань&lt;/span&gt;&lt;/b&gt;" style="text;whiteSpace=wrap;html=1;" vertex="1" parent="1">
          <mxGeometry x="-3680" y="3" width="250" height="50" as="geometry" />
        </mxCell>
        <mxCell id="WRKvFnNUePydnDmaV0V2-78" value="&lt;b&gt;&lt;font style=&quot;font-size: 16px;&quot;&gt;Моніторинг стану тварин&lt;/font&gt;&lt;/b&gt;" style="text;whiteSpace=wrap;html=1;" vertex="1" parent="1">
          <mxGeometry x="-5070" y="53" width="250" height="50" as="geometry" />
        </mxCell>
        <mxCell id="WRKvFnNUePydnDmaV0V2-79" value="&lt;b style=&quot;mso-bidi-font-weight:normal&quot;&gt;&lt;span style=&quot;font-size:16.0pt;line-height:106%;font-family:&amp;quot;Times New Roman&amp;quot;,serif;&lt;br/&gt;mso-fareast-font-family:Calibri;mso-fareast-theme-font:minor-latin;mso-bidi-theme-font:&lt;br/&gt;minor-bidi;mso-ansi-language:EN-US;mso-fareast-language:EN-US;mso-bidi-language:&lt;br/&gt;AR-SA&quot; lang=&quot;EN-US&quot;&gt;Контроль запасів кормів&lt;/span&gt;&lt;/b&gt;" style="text;html=1;align=center;verticalAlign=middle;whiteSpace=wrap;rounded=0;" vertex="1" parent="1">
          <mxGeometry x="-4580" y="1030" width="720" height="30" as="geometry" />
        </mxCell>
      </root>
    </mxGraphModel>
  </diagram>
</mxfile>
